<svg width="571" height="482" viewBox="0 0 571 482" fill="none" xmlns="http://www.w3.org/2000/svg">
<g clip-path="url(#clip0)">
<path opacity="0.1" d="M53.2317 414.798C66.6066 414.798 77.4492 413.137 77.4492 411.088C77.4492 409.04 66.6066 407.379 53.2317 407.379C39.8567 407.379 29.0142 409.04 29.0142 411.088C29.0142 413.137 39.8567 414.798 53.2317 414.798Z" fill="#7AAAFA"/>
<path opacity="0.1" d="M402.526 419.844C415.901 419.844 426.743 418.184 426.743 416.135C426.743 414.087 415.901 412.426 402.526 412.426C389.151 412.426 378.308 414.087 378.308 416.135C378.308 418.184 389.151 419.844 402.526 419.844Z" fill="#7AAAFA"/>
<path opacity="0.1" d="M342.865 454.208C356.24 454.208 367.083 452.547 367.083 450.499C367.083 448.45 356.24 446.79 342.865 446.79C329.49 446.79 318.648 448.45 318.648 450.499C318.648 452.547 329.49 454.208 342.865 454.208Z" fill="#7AAAFA"/>
<path opacity="0.1" d="M131.705 387.122C145.08 387.122 155.922 385.462 155.922 383.413C155.922 381.365 145.08 379.704 131.705 379.704C118.33 379.704 107.487 381.365 107.487 383.413C107.487 385.462 118.33 387.122 131.705 387.122Z" fill="#7AAAFA"/>
<path opacity="0.1" d="M138.911 482C215.63 482 277.823 468.613 277.823 452.099C277.823 435.585 215.63 422.198 138.911 422.198C62.1928 422.198 0 435.585 0 452.099C0 468.613 62.1928 482 138.911 482Z" fill="#7AAAFA"/>
<path opacity="0.1" d="M551.183 332.297C547.433 341.322 542.513 349.972 535.628 356.608C527.24 364.692 516.822 369.102 505.667 371.211C502.378 371.823 499.058 372.252 495.722 372.496C486.907 373.173 477.881 372.724 469.223 371.783C448.018 369.472 427.104 365.003 406.808 358.448C403.473 357.373 400.158 356.242 396.863 355.054C391.891 353.275 386.964 351.365 382.081 349.324C362.192 341.024 341.631 330.44 320.473 333.722C310.218 335.317 300.584 340.148 290.306 341.585C283.093 342.531 275.763 342.01 268.756 340.054C265.364 339.148 262.041 338.002 258.812 336.625C251.533 333.466 244.608 329.55 238.151 324.943C222.649 314.125 208.739 300.714 192.418 291.345C174.425 281.012 154.507 276.099 134.214 272.437C130.911 271.841 127.596 271.273 124.27 270.731C114.881 269.184 105.469 267.752 96.1916 266.059C87.2534 264.411 78.1572 262.396 70.3772 257.443C64.8258 253.909 60.1578 249.014 55.8759 243.856C47.977 234.299 41.2018 223.869 35.6829 212.77C35.3904 212.186 35.1038 211.601 34.823 211.017C26.2299 193.412 20.4505 174.218 16.9056 154.358C16.8003 153.774 16.7008 153.19 16.6014 152.606C13.2671 133.137 12.0504 113.009 12.4189 93.0261L12.454 91.2738C12.6821 81.4081 13.2964 71.5833 14.2089 61.8986C14.8641 55.0879 15.7415 48.0201 19.2747 42.2957C22.8079 36.5714 28.5639 32.8973 34.2966 29.8366C59.6489 16.361 83.9308 12.611 111.178 19.1414C115.554 20.187 119.912 21.3143 124.27 22.4826C127.587 23.3704 130.903 24.2875 134.214 25.2104C157.104 31.5831 179.935 38.3646 203.597 40.3974C205.882 40.596 208.169 40.7478 210.459 40.853C214.986 41.0632 219.514 41.11 224.041 40.9932C235.704 40.6663 247.327 39.4714 258.812 37.4184C262.134 36.8459 265.449 36.2112 268.756 35.5142C283.029 32.541 297.174 28.5749 311.09 24.1882C313.933 23.2925 316.772 22.3813 319.607 21.4545C325.995 19.3692 332.383 17.243 338.782 15.1753C357.887 8.9895 377.086 3.3411 396.863 1.06306C398.556 0.872245 400.248 0.702852 401.941 0.554877C403.561 0.414689 405.187 0.303707 406.808 0.221931C437.489 -1.41359 468.521 5.97546 495.722 21.0982C499.099 22.9713 502.414 24.965 505.667 27.0795C510.179 30.0118 514.552 33.166 518.787 36.5422C527.468 43.464 535.593 51.3437 541.782 60.8122C547.813 70.0354 551.727 80.3917 553.979 91.2796C554.102 91.8637 554.219 92.4478 554.324 93.032C557.629 110.608 556.599 129.457 552.891 147.068C552.499 148.914 552.083 150.766 551.651 152.612C551.516 153.196 551.376 153.78 551.235 154.364C547.234 171.017 542.122 187.624 543.455 204.65C543.625 206.794 543.894 208.92 544.245 211.023C544.344 211.607 544.444 212.191 544.555 212.776C547.164 226.666 553.095 239.843 556.652 253.599C563.328 279.739 561.411 307.329 551.183 332.297Z" fill="#7AAAFA"/>
<path opacity="0.1" d="M505.667 93.032H554.33C554.224 92.4478 554.107 91.8637 553.985 91.2796H505.667V27.0795C502.414 24.9689 499.099 22.9752 495.722 21.0982V91.2796H406.808V0.221924C405.187 0.3037 403.561 0.414682 401.941 0.554869C400.32 0.695057 398.554 0.870291 396.863 1.06305V91.2796H269.926L269.622 90.9467L338.782 15.1694C332.383 17.2372 325.995 19.3634 319.607 21.4487L268.756 77.1674V35.5083C265.445 36.2015 262.13 36.8362 258.812 37.4125V79.0891L224.041 40.9873C219.514 41.0964 214.986 41.0496 210.459 40.8471L256.179 90.9467L255.875 91.2796H134.203V25.2104C130.892 24.2875 127.575 23.3704 124.258 22.4825V91.2796H12.4423L12.4072 93.032H124.27V152.612H16.5897C16.6892 153.196 16.7886 153.78 16.8939 154.364H124.27V211.023H34.8114C35.0921 211.607 35.3788 212.191 35.6713 212.776H124.27V270.755C127.593 271.3 130.907 271.869 134.214 272.46V212.776H258.812V336.608C262.041 337.985 265.364 339.131 268.756 340.037V212.776H396.863V355.048C400.162 356.24 403.477 357.371 406.808 358.442V212.776H495.722V372.49C499.058 372.246 502.378 371.817 505.667 371.205V212.776H544.555C544.444 212.191 544.344 211.607 544.245 211.023H505.637V154.364H551.206C551.346 153.78 551.487 153.196 551.621 152.612H505.667V93.032ZM495.722 93.032V152.612H406.808V93.032H495.722ZM396.863 152.612H268.756V93.032H396.863V152.612ZM134.214 93.032H257.057L258.812 94.6266V152.612H134.214V93.032ZM134.214 211.023V154.364H258.812V211.023H134.214ZM268.756 211.023V154.364H396.863V211.023H268.756ZM495.722 211.023H406.808V154.364H495.722V211.023Z" fill="#7AAAFA"/>
<path opacity="0.1" d="M452.973 52.0038H452.201C452.473 51.8469 452.701 51.6249 452.866 51.3577C453.03 51.0905 453.125 50.7865 453.142 50.4734C453.142 49.2701 451.663 48.283 449.855 48.283H426.807C425 48.283 423.514 49.2701 423.514 50.4734C423.514 51.6825 425 52.6697 426.807 52.6697H427.58C427.308 52.8269 427.08 53.0491 426.915 53.3162C426.751 53.5833 426.656 53.887 426.638 54.2C426.638 55.2281 427.714 56.0984 429.153 56.3321H422.508C420.695 56.3321 419.215 57.3192 419.215 58.5225C419.215 59.7258 420.695 60.7188 422.508 60.7188H445.561C447.375 60.7188 448.855 59.7316 448.855 58.5225C448.855 57.4945 447.778 56.63 446.334 56.3963H452.973C454.78 56.3963 456.26 55.4092 456.26 54.2C456.26 52.9909 454.78 52.0038 452.973 52.0038Z" fill="#7AAAFA"/>
<path opacity="0.1" d="M203.1 72.8976H202.327C202.598 72.7387 202.825 72.5162 202.989 72.2494C203.153 71.9826 203.249 71.6797 203.269 71.3672C203.269 70.1581 201.789 69.1709 199.976 69.1709H176.922C175.109 69.1709 173.629 70.1581 173.629 71.3672C173.629 72.5704 175.109 73.5576 176.922 73.5576H177.689C177.419 73.7167 177.193 73.9395 177.03 74.2063C176.866 74.4731 176.771 74.7759 176.753 75.088C176.753 76.1219 177.829 76.9864 179.268 77.22H172.635C170.821 77.22 169.341 78.2072 169.341 79.4163C169.341 80.6254 170.821 81.6067 172.635 81.6067H195.688C197.501 81.6067 198.981 80.6196 198.981 79.4163C198.981 78.3824 197.899 77.5179 196.46 77.2843H203.1C204.907 77.2843 206.387 76.2971 206.387 75.088C206.387 73.8789 204.907 72.8976 203.1 72.8976Z" fill="#7AAAFA"/>
<path opacity="0.1" d="M488.34 162.302H487.568C487.838 162.143 488.065 161.921 488.229 161.654C488.394 161.387 488.49 161.084 488.51 160.772C488.51 159.569 487.03 158.581 485.216 158.581H462.163C460.349 158.581 458.869 159.569 458.869 160.772C458.869 161.975 460.349 162.962 462.163 162.962H462.929C462.659 163.121 462.433 163.344 462.269 163.611C462.106 163.877 462.011 164.18 461.993 164.493C461.993 165.521 463.069 166.391 464.508 166.625H457.869C456.062 166.625 454.582 167.612 454.582 168.815C454.582 170.018 456.062 171.011 457.869 171.011H480.928C482.736 171.011 484.222 170.024 484.222 168.815C484.222 167.787 483.14 166.923 481.701 166.689H488.34C490.147 166.689 491.627 165.702 491.627 164.493C491.627 163.284 490.147 162.302 488.34 162.302Z" fill="#7AAAFA"/>
<path d="M132.992 351.328L402.525 381.573V390.154L132.307 358.88L132.992 351.328Z" fill="#EAECF0"/>
<path d="M132.582 383.209H127.469V256.409L131.149 257.525L131.19 261.327L132.582 383.209Z" fill="#EAECF0"/>
<path d="M134.834 381.164L132.582 383.209L131.19 261.327L131.149 257.525H133.811L133.846 261.555L134.834 381.164Z" fill="#D3DAE1"/>
<path d="M54.3022 377.893L128.903 351.941V354.394L54.3022 380.142V377.893Z" fill="#D3DAE1"/>
<path d="M55.636 386.065L54.3022 380.142L128.903 354.394V359.499L55.636 386.065Z" fill="#EAECF0"/>
<path d="M402.525 248.331V415.902H398.635L398.437 260.451L398.431 255.48L402.525 248.331Z" fill="#EAECF0"/>
<path d="M405.386 247.513V414.471L402.526 415.902V248.331L405.386 247.513Z" fill="#D3DAE1"/>
<path d="M342.865 412.227L398.589 381.129L402.526 383.413L342.865 415.902V412.227Z" fill="#D3DAE1"/>
<path d="M344.608 422.853L342.865 415.902L402.526 383.413V390.154L344.608 422.853Z" fill="#EAECF0"/>
<path d="M336.214 275.101L336.419 452.076H341.947L341.128 273.056L336.214 275.101Z" fill="#EAECF0"/>
<path d="M344.608 271.421V450.645L341.947 452.076L341.128 273.056L341.455 272.904L344.608 271.421Z" fill="#D3DAE1"/>
<path d="M53.5886 412.432H48.8796L47.2651 254.125L47.2417 251.397H51.7459L51.781 254.511L53.5886 412.432Z" fill="#EAECF0"/>
<path d="M56.8584 411.205L53.5885 412.432L51.7809 254.511L51.7458 251.397H55.2264L55.2556 254.814L56.8584 411.205Z" fill="#D3DAE1"/>
<path opacity="0.1" d="M341.455 272.904L344.608 271.421V278.372L341.537 279.394L341.455 272.904Z" fill="black"/>
<path opacity="0.1" d="M405.386 247.513V258.138L402.525 259.096L398.437 260.451L398.431 255.48L402.525 248.331L405.386 247.513Z" fill="black"/>
<path d="M405.386 227.075V256.502L341.537 277.758L341.128 246.286L405.386 227.075Z" fill="#D48A9B"/>
<path d="M46.4229 225.03L130.336 209.096L405.386 227.075L341.128 246.286L46.4229 225.03Z" fill="#EFC6CD"/>
<path opacity="0.1" d="M55.2265 251.397L55.2557 254.814L51.781 254.511L47.2651 254.125L47.2417 251.397H55.2265Z" fill="black"/>
<path opacity="0.1" d="M133.846 261.555L131.19 261.327L127.469 261.012V256.409L131.149 257.525H133.811L133.846 261.555Z" fill="black"/>
<path d="M46.4229 225.03V252.419L341.537 277.758L341.128 246.286L46.4229 225.03Z" fill="#D48A9B"/>
<path d="M280.414 257.595H241.871V243.629L280.414 246.339V257.595Z" fill="#D48A9B"/>
<path opacity="0.1" d="M280.414 257.595H241.871V243.629L280.414 246.339V257.595Z" fill="black"/>
<path opacity="0.1" d="M190.09 240.568V262.636L338.057 273.874V250.375L280.344 247.104L274.611 252.215L251.078 250.579L242.69 244.446L190.09 240.568Z" fill="black"/>
<path d="M189.271 239.744V261.818L337.238 273.056V249.557L279.525 246.286L273.798 251.397L250.259 249.762L241.871 243.629L189.271 239.744Z" fill="white"/>
<path d="M97.9991 233.821L132.992 236.274L132.582 247.378H109.733L94.4484 241.38L97.9991 233.821Z" fill="#D48A9B"/>
<path opacity="0.1" d="M97.9991 233.821L132.992 236.274L132.582 247.378H109.733L94.4484 241.38L97.9991 233.821Z" fill="black"/>
<path opacity="0.1" d="M51.3364 230.755V250.58L185.592 261.205V240.153L133.811 237.092L128.288 241.175L107.411 239.954L98.818 234.639L51.3364 230.755Z" fill="black"/>
<path d="M50.5176 229.937V249.762L184.773 260.387V239.341L132.992 236.275L127.47 240.363L106.592 239.137L97.9991 233.821L50.5176 229.937Z" fill="white"/>
<path opacity="0.1" d="M56.5369 379.371L57.4553 379.056L56.9931 385.574L56.5369 385.738V379.371Z" fill="black"/>
<path opacity="0.1" d="M338.074 230.013L356.892 231.245L325.708 240.568L309.826 239.417L338.074 230.013Z" fill="black"/>
<path d="M338.074 229.195L356.892 230.428L325.708 239.744L309.826 238.599L338.074 229.195Z" fill="white"/>
<path d="M335.822 231.304C336.565 230.988 337.355 231.584 338.162 231.736C338.612 231.824 339.08 231.736 339.531 231.824C340.455 231.946 341.373 232.565 342.251 232.25" fill="#D3DAE1"/>
<path d="M334.851 231.87C335.588 231.549 336.384 232.145 337.191 232.297C337.641 232.384 338.109 232.297 338.566 232.384C339.49 232.507 340.402 233.126 341.28 232.811" fill="#D3DAE1"/>
<path d="M332.628 232.992C333.371 232.676 334.167 233.272 334.968 233.424C335.419 233.512 335.887 233.424 336.343 233.512C337.267 233.634 338.18 234.253 339.057 233.938" fill="#D3DAE1"/>
<path d="M29.2482 436.129C32.2818 436.129 34.741 433.674 34.741 430.645C34.741 427.615 32.2818 425.16 29.2482 425.16C26.2146 425.16 23.7554 427.615 23.7554 430.645C23.7554 433.674 26.2146 436.129 29.2482 436.129Z" fill="#535461"/>
<path d="M39.0756 457.584C42.1092 457.584 44.5684 455.128 44.5684 452.099C44.5684 449.07 42.1092 446.614 39.0756 446.614C36.042 446.614 33.5828 449.07 33.5828 452.099C33.5828 455.128 36.042 457.584 39.0756 457.584Z" fill="#535461"/>
<path d="M137.075 461.468C140.108 461.468 142.568 459.013 142.568 455.984C142.568 452.954 140.108 450.499 137.075 450.499C134.041 450.499 131.582 452.954 131.582 455.984C131.582 459.013 134.041 461.468 137.075 461.468Z" fill="#535461"/>
<path d="M158.97 433.472C162.004 433.472 164.463 431.016 164.463 427.987C164.463 424.958 162.004 422.502 158.97 422.502C155.936 422.502 153.477 424.958 153.477 427.987C153.477 431.016 155.936 433.472 158.97 433.472Z" fill="#535461"/>
<path d="M96.993 333.781H90.1138V376.696H96.993V333.781Z" fill="#535461"/>
<path opacity="0.1" d="M96.993 369.745H90.1138V376.696H96.993V369.745Z" fill="black"/>
<path d="M98.3208 371.38H88.7859V418.997H98.3208V371.38Z" fill="#3A3768"/>
<path d="M157.782 418.688L95.355 416.135V426.164H167.803C167.083 424.055 165.74 422.211 163.952 420.877C162.164 419.543 160.013 418.78 157.782 418.688Z" fill="#3A3768"/>
<path d="M32.9277 418.688L95.355 416.135V426.164H22.9072C23.6267 424.054 24.969 422.21 26.7574 420.876C28.5459 419.542 30.6969 418.779 32.9277 418.688Z" fill="#3A3768"/>
<path d="M88.7858 417.157L38.9468 441.69C36.8388 442.735 35.0647 444.346 33.8245 446.343C32.5843 448.34 31.9272 450.643 31.9272 452.993V453.741L90.1312 428.402L98.3207 427.788L146.721 458.647C147.029 456.366 146.707 454.044 145.788 451.934C144.869 449.823 143.389 448.003 141.509 446.673L98.3207 416.141L88.7858 417.157Z" fill="#3A3768"/>
<path opacity="0.1" d="M96.9929 333.775V338.401C95.7879 338.452 94.5595 338.477 93.3077 338.477C92.2255 338.477 91.1609 338.477 90.1138 338.419V333.775H96.9929Z" fill="black"/>
<path d="M93.3076 336.842C107.325 336.842 118.689 333.523 118.689 329.429C118.689 325.335 107.325 322.017 93.3076 322.017C79.2897 322.017 67.926 325.335 67.926 329.429C67.926 333.523 79.2897 336.842 93.3076 336.842Z" fill="#3A3768"/>
<path opacity="0.1" d="M118.467 329.429C118.443 329.841 118.334 330.244 118.148 330.613C117.962 330.982 117.702 331.308 117.385 331.573C114.249 334.622 104.556 336.83 93.0912 336.83C81.8774 336.83 72.3717 334.704 69.0082 331.766C68.6354 331.493 68.326 331.143 68.1009 330.739C67.8758 330.336 67.7403 329.889 67.7037 329.429C67.7037 325.34 79.0696 322.017 93.0912 322.017C107.113 322.017 118.467 325.335 118.467 329.429Z" fill="black"/>
<path opacity="0.1" d="M118.683 329.429C118.659 329.841 118.55 330.244 118.364 330.613C118.178 330.981 117.918 331.308 117.601 331.573C114.372 330.767 112.138 330.101 112.138 330.101C112.138 330.101 89.7627 331.351 69.2246 331.777C68.8519 331.504 68.5424 331.154 68.3173 330.751C68.0922 330.348 67.9567 329.901 67.9202 329.441C67.9202 325.352 79.286 322.028 93.3076 322.028C107.329 322.028 118.683 325.335 118.683 329.429Z" fill="black"/>
<path d="M29.2482 231.8C29.2482 231.8 37.6425 254.692 37.233 268.383C36.8235 282.075 30.2719 307.823 30.2719 307.823C30.2719 307.823 23.7262 328.67 40.5088 330.51C57.2914 332.35 112.138 329.283 112.138 329.283C112.138 329.283 132.611 335.411 139.151 332.753C141.696 331.725 143.901 329.458 145.644 327.069C146.599 325.767 147.278 324.285 147.64 322.712C148.002 321.14 148.04 319.51 147.751 317.922C147.462 316.335 146.852 314.823 145.959 313.478C145.066 312.133 143.908 310.984 142.556 310.101C139.5 308.199 136.173 306.773 132.687 305.872C131.954 305.673 131.195 305.58 130.435 305.597L58.9235 307.005C58.9235 307.005 50.9446 305.778 52.3777 297.811C53.8109 289.844 56.2619 265.317 56.2619 265.317C56.2619 265.317 56.6714 235.48 42.3456 227.104C28.0198 218.728 29.2482 231.8 29.2482 231.8Z" fill="#3A3768"/>
<path opacity="0.1" d="M29.2482 231.73C29.2482 231.73 37.6425 254.616 37.233 268.307C36.8235 281.999 30.2719 307.753 30.2719 307.753C30.2719 307.753 23.7262 328.594 40.5088 330.434C57.2914 332.274 112.138 329.201 112.138 329.201C112.138 329.201 132.611 335.335 139.151 332.706C141.696 331.672 143.901 329.406 145.644 327.023C146.599 325.72 147.278 324.237 147.64 322.664C148.003 321.091 148.04 319.461 147.752 317.873C147.463 316.285 146.853 314.772 145.96 313.427C145.066 312.082 143.908 310.932 142.556 310.048C139.498 308.151 136.171 306.726 132.687 305.819C131.954 305.619 131.195 305.529 130.435 305.551L58.9235 306.935C58.9235 306.935 50.9446 305.708 52.3777 297.735C53.8109 289.762 56.2619 265.247 56.2619 265.247C56.2619 265.247 56.6714 235.41 42.3456 227.028C28.0198 218.646 29.2482 231.73 29.2482 231.73Z" fill="black"/>
<path d="M30.8862 230.982C30.8862 230.982 39.2804 253.874 38.8709 267.566C38.4615 281.257 31.9099 307.005 31.9099 307.005C31.9099 307.005 25.3641 327.852 42.1409 329.692C58.9177 331.532 113.77 328.465 113.77 328.465C113.77 328.465 134.243 334.593 140.789 331.97C143.334 330.936 145.539 328.67 147.282 326.281C148.237 324.979 148.916 323.496 149.278 321.924C149.64 320.351 149.678 318.721 149.389 317.134C149.1 315.546 148.49 314.034 147.597 312.689C146.704 311.345 145.546 310.196 144.194 309.312C141.14 307.4 137.812 305.964 134.325 305.054C133.592 304.855 132.833 304.763 132.073 304.78L60.5614 306.187C60.5614 306.187 52.5825 304.961 54.0157 296.993C55.4488 289.026 57.8998 264.499 57.8998 264.499C57.8998 264.499 58.3093 234.662 43.9835 226.286C29.6578 217.91 30.8862 230.982 30.8862 230.982Z" fill="#3A3768"/>
<path d="M176.098 427.759V435.148C176.098 435.148 211.447 435.785 219.233 435.785C227.019 435.785 237.735 431.965 238.373 428.904C239.01 425.843 229.44 423.296 225.866 423.174C222.292 423.051 222.169 421.643 217.572 419.219C214.98 417.853 211.043 413.886 208.107 410.691C205.843 408.226 204.176 406.223 204.176 406.223C204.176 406.223 185.159 405.843 179.672 408.898C178.408 409.605 177.537 410.983 176.94 412.695C174.963 418.402 176.098 427.759 176.098 427.759Z" fill="#434175"/>
<path opacity="0.1" d="M176.94 412.695C180.929 411.31 204.269 410.773 208.107 410.691C205.843 408.226 204.176 406.223 204.176 406.223C204.176 406.223 185.159 405.843 179.672 408.898C178.408 409.605 177.537 410.977 176.94 412.695Z" fill="black"/>
<path d="M74.3899 294.85L76.449 296.094L77.2211 296.561L80.222 298.36C96.2617 308.016 140.011 334.178 142.41 333.991C143.035 333.939 144.919 333.658 147.522 333.232C148.212 333.121 148.955 333.004 149.733 332.87C159.754 331.205 176.408 328.197 178.268 327.367C180.818 326.199 180.309 331.316 179.286 335.65C178.262 339.984 177.502 360.767 178.648 363.431C179.795 366.094 179.286 370.44 179.286 370.44L177.759 393.758L178.783 398.711C178.783 398.711 175.337 401.515 176.741 403.168C178.145 404.821 176.87 411.965 176.87 411.965C180.965 410.434 208.645 409.926 208.645 409.926C208.645 409.926 207.475 399.727 208.516 397.309C209.558 394.891 208.774 380.487 208.774 380.487C208.774 380.487 209.411 369.529 208.265 366.982C207.118 364.435 208.645 348.121 208.645 348.121C208.645 348.121 209.669 338.436 209.92 318.681C210.172 298.927 198.689 298.296 198.689 298.296C198.689 298.296 197.162 298.173 194.834 297.951C190.289 297.513 182.708 296.684 177.642 295.615C176.604 295.397 175.579 295.124 174.571 294.797C168.318 292.671 147.265 292.589 143.819 294.119C140.503 295.591 137.186 294.23 136.94 294.119L134.261 289.785L108.663 291.964L105.955 292.198L80.7543 294.341L78.9994 294.493L74.3899 294.85Z" fill="#565387"/>
<path opacity="0.1" d="M176.993 314.394C184.428 318.016 191.523 305.183 194.828 297.945C190.283 297.507 182.702 296.678 177.636 295.609C174.308 301.164 169.862 310.93 176.993 314.394Z" fill="black"/>
<path d="M154.659 227.694C154.813 228.569 155.118 229.411 155.559 230.182C158.309 235.743 166.27 247.192 166.27 247.192C168.638 248.671 170.638 250.669 172.12 253.033C174.29 256.73 174.928 265.393 174.928 265.393C174.928 265.393 179.777 284.633 182.07 287.314C183.24 288.652 182.708 289.447 181.912 289.908C180.281 290.815 178.899 292.109 177.888 293.676C174.542 299.044 169.201 309.704 176.718 313.36C186.925 318.331 196.501 292.279 196.501 292.279C196.501 292.279 194.582 273.804 194.074 270.62C193.565 267.437 190.499 254.306 190.499 254.306C190.499 254.306 188.329 248.699 187.054 244.75C185.779 240.801 181.953 236.21 181.953 236.21C181.953 236.21 175.056 222.449 173.144 220.41C172.254 219.464 171.008 218.272 169.932 217.267C168.686 216.099 167.657 215.188 167.657 215.188C167.657 215.188 154.53 224.645 154.659 227.694Z" fill="#EE8E9E"/>
<path d="M68.1366 426.229L91.3597 436.55C91.3597 436.55 121.456 437.187 126.721 435.785C131.985 434.383 130.816 428.524 123.913 427.374C117.01 426.223 115.367 423.174 113.068 421.772C111.518 420.826 106.013 414.71 102.603 410.837C100.959 408.974 99.7949 407.625 99.7949 407.625C99.7949 407.625 95.3257 395.773 82.9479 398.448C80.6846 398.941 78.5992 400.042 76.9169 401.632C70.2425 407.8 69.6634 420.002 69.6634 420.002L68.1366 426.229Z" fill="#434175"/>
<path opacity="0.1" d="M77.2212 296.561L80.2221 298.36C96.2618 308.016 140.011 334.178 142.41 333.991C143.036 333.939 144.919 333.658 147.522 333.232C148.212 333.121 148.955 333.004 149.733 332.87L149.821 332.724C151.108 330.482 152.092 328.08 152.746 325.58C155.425 315.387 142.152 307.612 142.152 307.612L139.344 305.434C136.156 300.072 113.185 295.001 113.185 295.001L110.225 292.986L108.64 291.923L108.224 291.649L104.633 289.236L86.6391 290.51L81.2925 293.938L80.7076 294.3L78.7538 295.58L77.2212 296.561Z" fill="black"/>
<path opacity="0.1" d="M76.9169 401.632C81.8013 418.507 102.205 412.993 102.205 412.993L102.591 410.855C100.947 408.992 99.7831 407.642 99.7831 407.642C99.7831 407.642 95.314 395.791 82.9361 398.466C80.6789 398.955 78.598 400.05 76.9169 401.632Z" fill="black"/>
<path d="M71.5821 325.048C79.1105 325.048 98.4904 334.096 98.4904 334.096C102.445 337.157 107.803 336.135 107.803 336.135C107.803 336.135 98.3793 345.691 98.6425 349.645C98.9057 353.6 93.2784 360.095 93.2784 360.095L75.9225 394.371C77.2036 418.711 102.211 411.959 102.211 411.959L103.234 406.223C104.767 405.458 107.066 397.812 107.066 397.812C107.066 397.812 107.066 394.757 108.593 393.863C110.119 392.969 113.313 383.793 113.313 383.793C113.313 383.793 120.204 372.198 119.818 370.674C119.432 369.149 124.796 361.374 124.796 361.374C124.796 361.374 133.857 352.455 133.471 350.86C133.085 349.266 140.76 341.106 140.76 341.106C143.534 338.963 145.84 336.275 147.534 333.208C148.82 330.968 149.803 328.568 150.459 326.071C152.617 317.858 144.428 311.216 141.158 308.944C140.368 308.395 139.865 308.103 139.865 308.103L137.057 305.924C135.606 303.483 130.067 301.1 124.451 299.236C120.403 297.887 116.32 296.8 113.705 296.152C111.95 295.726 110.897 295.486 110.897 295.486L107.938 293.5L106.896 292.799L105.943 292.163L102.345 289.75L94.343 290.334L84.3518 291.041L79.0111 294.476L76.4607 296.111L66.487 302.536C66.487 302.536 66.2238 304.984 66.1419 308.278C66.1419 308.53 66.1419 308.787 66.1419 309.055C66.0074 315.673 66.7269 325.048 71.5821 325.048Z" fill="#565387"/>
<path d="M109.991 182.326L112.682 191.882C112.682 191.882 117.408 208.325 117.917 209.47C118.426 210.614 130.786 222.215 131.319 222.466C131.851 222.717 138.566 226.555 138.566 226.555C138.566 226.555 139.099 205.527 138.566 199.417C138.523 198.073 138.634 196.728 138.9 195.41C139.713 190.614 141.772 183.587 143.48 178.173C144.907 173.634 146.095 170.235 146.095 170.235C146.095 170.235 116.232 168.955 117.256 171.888C117.642 172.997 117.513 174.849 117.145 176.707C116.525 179.767 115.244 182.828 114.448 182.594C113.671 182.417 112.876 182.329 112.079 182.332C110.991 182.285 109.991 182.326 109.991 182.326Z" fill="#EE8E9E"/>
<path opacity="0.1" d="M117.157 176.695C120.803 179.732 125.334 181.515 130.075 181.78C134.817 182.044 139.517 180.775 143.48 178.161C144.907 173.622 146.095 170.223 146.095 170.223C146.095 170.223 116.232 168.944 117.256 171.876C117.654 172.986 117.525 174.837 117.157 176.695Z" fill="black"/>
<path d="M109.224 159.008C109.223 163.369 110.517 167.633 112.943 171.26C115.369 174.887 118.817 177.714 122.852 179.384C126.887 181.054 131.327 181.491 135.611 180.641C139.895 179.791 143.831 177.691 146.919 174.608C150.008 171.524 152.112 167.595 152.965 163.318C153.817 159.04 153.38 154.606 151.709 150.577C150.038 146.547 147.207 143.103 143.576 140.68C139.944 138.257 135.675 136.963 131.307 136.963C128.404 136.949 125.526 137.51 122.841 138.613C120.156 139.716 117.717 141.339 115.663 143.389C113.61 145.438 111.984 147.874 110.879 150.555C109.774 153.236 109.211 156.109 109.224 159.008Z" fill="#EE8E9E"/>
<path opacity="0.1" d="M109.991 182.326L112.682 191.882C112.682 191.882 117.408 208.325 117.917 209.469C118.426 210.614 130.786 222.215 131.319 222.466C131.851 222.717 138.566 226.555 138.566 226.555C138.566 226.555 139.099 205.527 138.566 199.417C138.523 198.073 138.634 196.728 138.9 195.41L137.145 202.472L137.274 216.619L138.291 217.384L135.998 220.825V218.272C135.998 218.272 127.809 210.375 126.551 207.057C125.294 203.739 120.702 197.746 120.702 197.746C120.702 197.746 115.437 188.985 115.343 187.437C115.244 186.268 113.044 183.488 112.079 182.331C110.991 182.285 109.991 182.326 109.991 182.326Z" fill="black"/>
<path opacity="0.1" d="M154.659 227.694C154.813 228.569 155.118 229.411 155.559 230.182C158.35 229.902 167.844 228.126 169.95 217.285C168.704 216.117 167.674 215.205 167.674 215.205C167.674 215.205 154.53 224.645 154.659 227.694Z" fill="black"/>
<path opacity="0.1" d="M66.1127 309.014C68.6865 307.192 71.1375 304.709 72.5999 304.026C74.7701 303.004 78.0869 299.692 78.0869 299.692C78.0869 299.692 78.9292 299.108 80.222 298.36C82.5911 296.976 86.4753 294.966 89.4469 294.721C92.1085 294.499 100.965 293.932 107.926 293.5L117.01 292.916C117.01 292.916 125.305 289.995 128.879 291.894C131.439 293.169 134.135 294.149 136.917 294.814C136.917 294.814 136.917 294.534 136.917 294.055L134.238 289.721L105.931 292.133L102.334 289.721L84.3402 290.994L78.9994 294.429L74.3899 294.82L76.449 296.064L66.4753 302.49C66.4753 302.49 66.1712 305.34 66.1127 309.014Z" fill="black"/>
<path d="M62.3747 310.142C63.726 309.739 64.9927 309.093 66.1126 308.238C68.6806 306.421 71.1258 303.944 72.5823 303.261C74.7525 302.239 78.0693 298.927 78.0693 298.927C78.0693 298.927 84.8373 294.336 89.4293 293.956C90.6811 293.851 93.3018 293.67 96.4489 293.465L106.867 292.799L112.272 292.461L116.993 292.174C116.993 292.174 125.288 289.254 128.862 291.152C131.421 292.427 134.118 293.407 136.899 294.073C136.899 294.073 137.028 285.153 138.069 281.456C139.11 277.758 140.491 271.006 140.491 271.006C140.491 271.006 141.661 261.707 142.79 257.501C143.919 253.296 148.405 229.849 150.704 228.296C153.003 226.742 154.273 229.464 154.273 229.464C154.273 229.464 169.587 229.207 169.844 212.39C169.844 212.39 162.696 205.252 162.187 203.471C161.678 201.689 154.916 195.059 154.916 195.059C154.916 195.059 151.085 187.922 146.727 187.793C144.678 187.674 142.622 187.738 140.584 187.986L136.899 202.957L137.028 217.104L138.052 217.869L135.753 221.31V218.804C135.753 218.804 127.563 210.901 126.311 207.589C125.059 204.277 120.462 198.272 120.462 198.272C120.462 198.272 115.232 189.51 115.103 187.962C114.975 186.415 111.401 182.337 111.401 182.337C110.68 182.251 109.951 182.251 109.23 182.337C108.909 182.358 108.586 182.313 108.283 182.203C106.222 181.547 104.028 181.422 101.907 181.841C97.4959 182.758 90.7923 184.429 88.9438 186.432C86.136 189.493 82.0529 192.425 77.4551 205.165L102.211 214.084L100.093 218.109L80.3916 255.492C80.3916 255.492 79.7364 256.555 78.8531 257.939C77.6832 259.738 76.1682 262.092 75.1562 263.383C73.372 265.679 73.8809 272.939 73.8809 272.939C73.8809 272.939 73.5007 276.38 72.2255 277.659C70.9503 278.938 71.196 283.64 71.196 283.64L67.8792 296C67.8792 296 64.814 298.804 64.814 300.089C64.814 301.374 62.3922 304.931 62.3922 304.931C62.3922 304.931 58.6894 311.03 62.3747 310.142Z" fill="#DFE5EE"/>
<path opacity="0.1" d="M78.8473 257.939C79.0179 258.642 79.1487 259.354 79.2392 260.071C79.2392 260.071 89.3181 283.646 90.5934 285.048C90.9853 285.48 92.4711 287.601 94.3313 290.305L96.4664 293.454C100.321 299.172 104.656 305.667 104.656 305.667L114.097 313.95C114.097 313.95 134.641 315.592 141.169 308.933C140.38 308.384 139.877 308.092 139.877 308.092L137.069 305.913C135.618 303.471 130.078 301.088 124.463 299.225C119.292 299.26 115.062 299.68 115.062 299.68L113.717 296.141L112.313 292.449L105.153 273.711C105.153 273.711 100.549 250.013 99.0169 248.862C97.4843 247.712 97.8469 244.148 97.8469 244.148C97.8469 244.148 100.655 234.084 99.6311 232.682C98.6074 231.28 101.292 220.953 101.292 220.953C101.026 219.946 100.612 218.983 100.064 218.097L80.3623 255.48C80.3623 255.48 79.7306 256.538 78.8473 257.939Z" fill="black"/>
<path d="M101.567 220.176C101.567 220.176 98.8882 230.498 99.9119 231.899C100.936 233.301 98.1218 243.366 98.1218 243.366C98.1218 243.366 97.7416 246.935 99.2918 248.079C100.842 249.224 105.428 272.928 105.428 272.928L115.314 298.927C115.314 298.927 146.253 295.866 143.065 305.551C139.877 315.235 114.349 313.197 114.349 313.197L104.907 304.914C104.907 304.914 92.1435 285.673 90.8683 284.271C89.5931 282.869 79.5083 259.294 79.5083 259.294C79.5083 259.294 78.9994 254.581 76.8292 252.157C74.6589 249.733 76.3202 245.644 76.3202 245.644C76.3202 245.644 73.6411 214.82 76.4489 211.128C79.2568 207.437 98.6425 209.09 101.567 220.176Z" fill="#EE8E9E"/>
<path opacity="0.1" d="M193.073 319.312C193.073 319.312 185.03 321.993 182.877 325.813C180.725 329.634 193.073 319.312 193.073 319.312Z" fill="black"/>
<path opacity="0.1" d="M188.984 310.907C188.733 311.287 177.975 322.063 178.648 324.669C179.321 327.274 188.984 310.907 188.984 310.907Z" fill="black"/>
<path opacity="0.1" d="M129.903 318.553C129.903 318.553 117.905 324.201 116.882 326.66C115.858 329.12 129.903 318.553 129.903 318.553Z" fill="black"/>
<path opacity="0.1" d="M129.137 325.813C129.137 325.813 118.309 330.399 116.853 331.549C115.396 332.7 129.137 325.813 129.137 325.813Z" fill="black"/>
<path opacity="0.1" d="M124.159 335.627C124.159 335.627 119.362 339.196 116.718 336.392C114.074 333.588 124.159 335.627 124.159 335.627Z" fill="black"/>
<path opacity="0.1" d="M142.152 242.6C141.895 242.986 125.943 271.654 121.731 273.821C117.519 275.988 142.152 242.6 142.152 242.6Z" fill="black"/>
<path opacity="0.1" d="M141.386 253.436C141.386 254.072 125.814 287.314 123.252 287.712C120.69 288.109 141.386 253.436 141.386 253.436Z" fill="black"/>
<path opacity="0.1" d="M82.1699 274.844C82.1699 274.844 74.659 290.878 71.7342 291.818C68.8093 292.758 82.1699 274.844 82.1699 274.844Z" fill="black"/>
<path opacity="0.1" d="M80.8946 267.706C80.8946 267.706 78.3033 273.313 76.7297 273.313C75.1561 273.313 80.8946 267.706 80.8946 267.706Z" fill="black"/>
<path opacity="0.1" d="M109.224 159.008C109.223 161.643 109.696 164.257 110.623 166.724C110.541 163.862 111.051 161.015 112.121 158.359C113.191 155.703 114.799 153.296 116.843 151.289C118.887 149.281 121.323 147.716 124 146.692C126.677 145.667 129.537 145.205 132.401 145.334C133.471 145.38 134.741 145.632 135.174 146.601C135.344 147.122 135.433 147.666 135.437 148.213C135.758 150.69 138.274 152.238 140.637 153.044C143 153.85 145.633 154.364 147.347 156.181C148.914 157.845 149.359 160.234 150.131 162.39C150.565 163.71 151.302 164.91 152.284 165.894C153.282 162.863 153.61 159.652 153.244 156.482C152.879 153.312 151.828 150.259 150.166 147.534C148.504 144.809 146.269 142.476 143.616 140.698C140.963 138.919 137.955 137.737 134.799 137.232C131.644 136.727 128.417 136.913 125.34 137.775C122.263 138.637 119.411 140.156 116.979 142.226C114.547 144.296 112.595 146.869 111.256 149.767C109.917 152.664 109.224 155.817 109.224 159.008Z" fill="black"/>
<path d="M150.459 139.049C148.645 136.589 145.428 135.737 142.632 134.498C139.174 132.933 136.121 130.597 133.709 127.67C131.296 124.742 129.588 121.301 128.716 117.612C127.601 119.248 127.078 121.215 127.233 123.188C127.389 125.161 128.213 127.022 129.57 128.464C124.486 128.12 118.871 127.536 115.425 123.792C114.641 126.49 116.987 129.557 115.706 132.057C114.606 134.206 111.611 134.393 109.675 135.853C107.61 137.384 106.926 140.158 106.797 142.723C106.668 145.287 106.937 147.915 106.177 150.369C105.592 152.232 104.422 153.944 104.305 155.889C104.292 157.338 104.612 158.771 105.241 160.077C106.684 163.556 108.64 166.801 111.044 169.703C110.39 166.591 110.457 163.371 111.24 160.29C112.023 157.208 113.502 154.346 115.562 151.922C117.623 149.498 120.212 147.577 123.13 146.306C126.049 145.034 129.22 144.446 132.401 144.586C133.471 144.633 134.741 144.89 135.174 145.859C135.345 146.38 135.434 146.924 135.437 147.472C135.758 149.942 138.274 151.49 140.637 152.296C143 153.102 145.633 153.622 147.347 155.433C148.914 157.098 149.359 159.487 150.131 161.642C150.903 163.798 152.395 166.052 154.67 166.315C155.191 163.114 155.717 159.89 155.396 156.642C155.045 153.167 152.705 151.198 151.886 148.172C150.997 145.001 152.681 142.063 150.459 139.049Z" fill="#603556"/>
<path opacity="0.1" d="M85.7733 200.807L77.7359 205.649C77.7359 205.649 75.437 213.418 73.6411 214.411C73.6411 214.411 89.7218 205.492 101.842 226.006C101.842 226.006 101.462 223.331 103.117 222.057C104.773 220.784 104.393 215.305 104.393 215.305C104.839 214.437 105.23 213.541 105.563 212.624C106.674 209.849 100.678 193.798 85.7733 200.807Z" fill="black"/>
<path d="M85.4925 200.293L77.4492 205.135C77.4492 205.135 75.1503 212.91 73.3545 213.932C73.3545 213.932 89.4352 205.007 101.556 225.527C101.556 225.527 101.175 222.852 102.837 221.578C104.498 220.305 104.112 214.82 104.112 214.82C104.561 213.955 104.952 213.062 105.282 212.145C106.417 209.341 100.397 193.284 85.4925 200.293Z" fill="#DFE5EE"/>
<g opacity="0.1">
<path opacity="0.1" d="M116.092 130.217C116.063 128.137 114.823 125.847 115.425 123.791L115.53 123.902C115.677 126.029 116.858 128.266 116.092 130.217Z" fill="black"/>
<path opacity="0.1" d="M107.054 141.181C106.931 143.517 107.142 145.854 106.616 148.126C106.809 146.344 106.703 144.51 106.797 142.711C106.836 141.858 106.947 141.01 107.13 140.176C107.095 140.532 107.066 140.848 107.054 141.181Z" fill="black"/>
<path opacity="0.1" d="M104.305 155.877C104.338 155.413 104.423 154.955 104.556 154.51C104.578 155.903 104.9 157.276 105.498 158.535C106.819 161.718 108.571 164.705 110.704 167.413C110.774 168.178 110.887 168.939 111.044 169.691C108.64 166.789 106.684 163.544 105.241 160.065C104.612 158.759 104.292 157.326 104.305 155.877Z" fill="black"/>
<path opacity="0.1" d="M129.827 126.934C129.336 126.905 128.832 126.87 128.335 126.829C127.221 124.823 126.917 122.468 127.487 120.246C127.38 121.463 127.533 122.688 127.936 123.841C128.34 124.994 128.984 126.049 129.827 126.934Z" fill="black"/>
<path opacity="0.1" d="M115.811 150.375C117.888 147.97 120.48 146.062 123.395 144.792C126.31 143.522 129.474 142.923 132.652 143.038C133.723 143.091 134.992 143.342 135.431 144.311C135.599 144.833 135.688 145.376 135.694 145.924C136.016 148.394 138.525 149.948 140.894 150.748C143.264 151.549 145.884 152.074 147.598 153.891C149.172 155.556 149.616 157.945 150.388 160.094C151.161 162.244 152.646 164.498 154.916 164.767L154.67 166.297C152.395 166.052 150.903 163.797 150.131 161.625C149.359 159.452 148.914 157.08 147.347 155.415C145.633 153.605 143 153.079 140.637 152.279C138.274 151.478 135.758 149.942 135.437 147.454C135.434 146.906 135.345 146.362 135.173 145.842C134.717 144.872 133.471 144.615 132.401 144.568C127.429 144.337 122.539 145.895 118.62 148.96C114.702 152.025 112.015 156.392 111.05 161.268C111.558 157.256 113.211 153.475 115.811 150.375Z" fill="black"/>
</g>
<path d="M252.588 198.395V221.251L230.687 219.499V198.395H252.588Z" fill="#3A3768"/>
<path opacity="0.1" d="M252.588 219.382V221.251L230.687 219.499V217.63L252.588 219.382Z" fill="black"/>
<path d="M259.28 222.892L225.211 221.14C225.211 220.257 225.562 219.41 226.188 218.786C226.813 218.161 227.661 217.811 228.545 217.811L255.945 219.563C256.83 219.563 257.678 219.914 258.303 220.538C258.928 221.162 259.28 222.009 259.28 222.892Z" fill="#3A3768"/>
<path d="M300.888 204.674L183.047 201.169C182.576 201.17 182.109 201.078 181.674 200.898C181.238 200.719 180.843 200.455 180.51 200.122C180.177 199.79 179.912 199.395 179.733 198.96C179.553 198.525 179.46 198.059 179.461 197.589V128.079C179.461 127.609 179.554 127.144 179.734 126.71C179.915 126.275 180.179 125.881 180.512 125.549C180.845 125.217 181.24 124.954 181.675 124.775C182.11 124.595 182.576 124.503 183.047 124.504L300.888 128.009C301.838 128.009 302.749 128.385 303.422 129.056C304.094 129.726 304.472 130.635 304.474 131.584V201.093C304.474 202.043 304.096 202.954 303.424 203.625C302.751 204.297 301.839 204.674 300.888 204.674Z" fill="#3A3768"/>
<path d="M301.578 199.592L182.094 196.087V133.459L301.578 136.963V199.592Z" fill="#7AAAFA"/>
<path d="M241.836 131.262C242.417 131.262 242.889 130.797 242.889 130.223C242.889 129.648 242.417 129.183 241.836 129.183C241.254 129.183 240.783 129.648 240.783 130.223C240.783 130.797 241.254 131.262 241.836 131.262Z" fill="white"/>
<path opacity="0.1" d="M252.564 202.723L230.733 202.372V203.114H252.564V202.723Z" fill="black"/>
<path opacity="0.1" d="M212.81 224.23L242.707 226.187L236.337 235.328L203.468 231.824L212.81 224.23Z" fill="black"/>
<path d="M212.225 223.646L242.122 225.603L235.752 234.744L202.883 231.24L212.225 223.646Z" fill="#3A3768"/>
<path d="M213.547 224.323L239.619 225.912L234.068 233.36L205.398 230.503L213.547 224.323Z" fill="#D5E1F4"/>
<path opacity="0.1" d="M516.775 469.751C537.516 469.751 554.33 467.175 554.33 463.998C554.33 460.82 537.516 458.244 516.775 458.244C496.034 458.244 479.22 460.82 479.22 463.998C479.22 467.175 496.034 469.751 516.775 469.751Z" fill="#7AAAFA"/>
<path d="M537.88 328.203C537.88 328.203 542.051 333.652 535.95 341.883C529.849 350.113 524.836 357.069 526.854 362.186C526.854 362.186 536.061 346.9 543.549 346.69C551.036 346.479 546.14 337.379 537.88 328.203Z" fill="#7AAAFA"/>
<path opacity="0.1" d="M537.88 328.203C538.241 328.729 538.527 329.303 538.729 329.908C546.041 338.489 549.936 346.491 542.911 346.69C536.365 346.877 528.515 358.559 526.632 361.515C526.694 361.742 526.768 361.966 526.854 362.186C526.854 362.186 536.061 346.9 543.549 346.69C551.036 346.479 546.14 337.379 537.88 328.203Z" fill="black"/>
<path d="M545.637 335.148C545.637 337.064 545.421 338.652 545.157 338.652C544.894 338.652 544.672 337.093 544.672 335.148C544.672 333.203 544.941 334.131 545.21 334.131C545.479 334.131 545.637 333.232 545.637 335.148Z" fill="#FFD037"/>
<path d="M548.298 337.437C546.614 338.354 545.14 338.909 545.017 338.676C544.894 338.442 546.152 337.507 547.836 336.59C549.521 335.673 548.86 336.345 549.006 336.59C549.153 336.836 549.989 336.52 548.298 337.437Z" fill="#FFD037"/>
<path d="M515.833 328.203C515.833 328.203 511.657 333.652 517.758 341.883C523.859 350.113 528.872 357.069 526.854 362.186C526.854 362.186 517.653 346.9 510.159 346.69C502.666 346.479 507.591 337.379 515.833 328.203Z" fill="#7AAAFA"/>
<path opacity="0.1" d="M515.833 328.203C515.469 328.728 515.181 329.302 514.979 329.908C507.673 338.489 503.777 346.491 510.803 346.69C517.348 346.877 525.199 358.559 527.076 361.515C527.016 361.743 526.942 361.967 526.854 362.186C526.854 362.186 517.653 346.9 510.159 346.69C502.666 346.479 507.591 337.379 515.833 328.203Z" fill="black"/>
<path d="M508.077 335.148C508.077 337.064 508.287 338.652 508.556 338.652C508.825 338.652 509.036 337.093 509.036 335.148C509.036 333.203 508.767 334.131 508.504 334.131C508.24 334.131 508.077 333.232 508.077 335.148Z" fill="#FFD037"/>
<path d="M505.409 337.437C507.1 338.354 508.568 338.909 508.697 338.676C508.825 338.442 507.527 337.507 505.871 336.59C504.216 335.673 504.853 336.345 504.701 336.59C504.549 336.836 503.724 336.52 505.409 337.437Z" fill="#FFD037"/>
<path opacity="0.1" d="M526.854 403.88C550.955 403.88 570.492 400.886 570.492 397.192C570.492 393.499 550.955 390.504 526.854 390.504C502.753 390.504 483.215 393.499 483.215 397.192C483.215 400.886 502.753 403.88 526.854 403.88Z" fill="#7AAAFA"/>
<path d="M549.316 354.838L549.106 356.544L548.813 358.945L548.691 359.949L548.398 362.35L548.275 363.355L547.983 365.755L544.643 393.092C544.344 395.533 540.349 397.432 535.529 397.432H518.179C513.359 397.432 509.375 395.533 509.077 393.092L505.731 365.755L505.438 363.355L505.315 362.35L505.017 359.949L504.894 358.945L504.602 356.544L504.397 354.838C504.227 353.46 506.386 352.292 509.112 352.292H544.602C547.31 352.292 549.486 353.46 549.316 354.838Z" fill="#65617D"/>
<path d="M549.106 356.544L548.813 358.945H504.9L504.608 356.544H549.106Z" fill="#9D9CB5"/>
<path d="M548.691 359.949L548.398 362.356H505.316L505.017 359.949H548.691Z" fill="#9D9CB5"/>
<path d="M548.275 363.355L547.983 365.761H505.731L505.438 363.355H548.275Z" fill="#9D9CB5"/>
</g>
<defs>
<clipPath id="clip0">
<rect width="570.492" height="482" fill="white"/>
</clipPath>
</defs>
</svg>
